<?xml version="1.0" encoding="UTF-8" standalone="no"?>
<!DOCTYPE svg PUBLIC "-//W3C//DTD SVG 1.1//EN"
 "http://www.w3.org/Graphics/SVG/1.1/DTD/svg11.dtd">
<!-- Generated by graphviz version 2.47.0 (20210316.1410)
 -->
<!-- Title: snakemake_dag Pages: 1 -->
<svg width="1305pt" height="281pt"
 viewBox="0.00 0.00 1304.74 281.00" xmlns="http://www.w3.org/2000/svg" xmlns:xlink="http://www.w3.org/1999/xlink">
<g id="graph0" class="graph" transform="scale(1 1) rotate(0) translate(4 277)">
<title>snakemake_dag</title>
<polygon fill="white" stroke="transparent" points="-4,4 -4,-277 1300.74,-277 1300.74,4 -4,4"/>
<!-- 0 -->
<g id="node1" class="node">
<title>0</title>
<path fill="none" stroke="#d8bc56" stroke-width="2" d="M663.37,-36C663.37,-36 633.37,-36 633.37,-36 627.37,-36 621.37,-30 621.37,-24 621.37,-24 621.37,-12 621.37,-12 621.37,-6 627.37,0 633.37,0 633.37,0 663.37,0 663.37,0 669.37,0 675.37,-6 675.37,-12 675.37,-12 675.37,-24 675.37,-24 675.37,-30 669.37,-36 663.37,-36"/>
<text text-anchor="middle" x="648.37" y="-15.5" font-family="sans" font-size="10.00">all</text>
</g>
<!-- 1 -->
<g id="node2" class="node">
<title>1</title>
<path fill="none" stroke="#88d856" stroke-width="2" d="M453.37,-108C453.37,-108 355.37,-108 355.37,-108 349.37,-108 343.37,-102 343.37,-96 343.37,-96 343.37,-84 343.37,-84 343.37,-78 349.37,-72 355.37,-72 355.37,-72 453.37,-72 453.37,-72 459.37,-72 465.37,-78 465.37,-84 465.37,-84 465.37,-96 465.37,-96 465.37,-102 459.37,-108 453.37,-108"/>
<text text-anchor="middle" x="404.37" y="-93" font-family="sans" font-size="10.00">calc_dhs_enrichment</text>
<text text-anchor="middle" x="404.37" y="-82" font-family="sans" font-size="10.00">snpgroup: trans_eqtls</text>
</g>
<!-- 1&#45;&gt;0 -->
<g id="edge1" class="edge">
<title>1&#45;&gt;0</title>
<path fill="none" stroke="grey" stroke-width="2" d="M463.75,-71.97C509.81,-58.75 572.23,-40.84 611.39,-29.61"/>
<polygon fill="grey" stroke="grey" stroke-width="2" points="612.42,-32.96 621.06,-26.83 610.49,-26.23 612.42,-32.96"/>
</g>
<!-- 2 -->
<g id="node3" class="node">
<title>2</title>
<path fill="none" stroke="#56d88a" stroke-width="2" d="M565.87,-196C565.87,-196 32.87,-196 32.87,-196 26.87,-196 20.87,-190 20.87,-184 20.87,-184 20.87,-156 20.87,-156 20.87,-150 26.87,-144 32.87,-144 32.87,-144 565.87,-144 565.87,-144 571.87,-144 577.87,-150 577.87,-156 577.87,-156 577.87,-184 577.87,-184 577.87,-190 571.87,-196 565.87,-196"/>
<text text-anchor="middle" x="299.37" y="-184" font-family="sans" font-size="10.00">calc_dhs_background</text>
<text text-anchor="middle" x="299.37" y="-173" font-family="sans" font-size="10.00">dhstype: dhsindex</text>
<text text-anchor="middle" x="299.37" y="-162" font-family="sans" font-size="10.00">results_dir: /cbscratch/franco/trans&#45;eqtl/dev&#45;pipeline/gtex_v8_SHAPEIT2_032021_rev_freeze/raw/summary_dev</text>
<text text-anchor="middle" x="299.37" y="-151" font-family="sans" font-size="10.00">tshort: aa</text>
</g>
<!-- 2&#45;&gt;1 -->
<g id="edge7" class="edge">
<title>2&#45;&gt;1</title>
<path fill="none" stroke="grey" stroke-width="2" d="M333.17,-143.89C345.93,-134.41 360.39,-123.67 372.93,-114.36"/>
<polygon fill="grey" stroke="grey" stroke-width="2" points="375.32,-116.94 381.26,-108.17 371.14,-111.32 375.32,-116.94"/>
</g>
<!-- 3 -->
<g id="node4" class="node">
<title>3</title>
<path fill="none" stroke="#88d856" stroke-width="2" d="M627.37,-108C627.37,-108 495.37,-108 495.37,-108 489.37,-108 483.37,-102 483.37,-96 483.37,-96 483.37,-84 483.37,-84 483.37,-78 489.37,-72 495.37,-72 495.37,-72 627.37,-72 627.37,-72 633.37,-72 639.37,-78 639.37,-84 639.37,-84 639.37,-96 639.37,-96 639.37,-102 633.37,-108 627.37,-108"/>
<text text-anchor="middle" x="561.37" y="-93" font-family="sans" font-size="10.00">calc_dhs_enrichment</text>
<text text-anchor="middle" x="561.37" y="-82" font-family="sans" font-size="10.00">snpgroup: trans_not_cis_eqtl</text>
</g>
<!-- 2&#45;&gt;3 -->
<g id="edge9" class="edge">
<title>2&#45;&gt;3</title>
<path fill="none" stroke="grey" stroke-width="2" d="M383.35,-144C419.18,-133.33 460.42,-121.06 494.17,-111"/>
<polygon fill="grey" stroke="grey" stroke-width="2" points="495.35,-114.31 503.94,-108.1 493.36,-107.6 495.35,-114.31"/>
</g>
<!-- 6 -->
<g id="node7" class="node">
<title>6</title>
<path fill="none" stroke="#88d856" stroke-width="2" d="M312.87,-108C312.87,-108 201.87,-108 201.87,-108 195.87,-108 189.87,-102 189.87,-96 189.87,-96 189.87,-84 189.87,-84 189.87,-78 195.87,-72 201.87,-72 201.87,-72 312.87,-72 312.87,-72 318.87,-72 324.87,-78 324.87,-84 324.87,-84 324.87,-96 324.87,-96 324.87,-102 318.87,-108 312.87,-108"/>
<text text-anchor="middle" x="257.37" y="-93" font-family="sans" font-size="10.00">calc_dhs_enrichment</text>
<text text-anchor="middle" x="257.37" y="-82" font-family="sans" font-size="10.00">snpgroup: trans_cis_eqtl</text>
</g>
<!-- 2&#45;&gt;6 -->
<g id="edge12" class="edge">
<title>2&#45;&gt;6</title>
<path fill="none" stroke="grey" stroke-width="2" d="M285.85,-143.89C281.27,-135.39 276.15,-125.87 271.52,-117.28"/>
<polygon fill="grey" stroke="grey" stroke-width="2" points="274.57,-115.56 266.74,-108.41 268.4,-118.87 274.57,-115.56"/>
</g>
<!-- 3&#45;&gt;0 -->
<g id="edge2" class="edge">
<title>3&#45;&gt;0</title>
<path fill="none" stroke="grey" stroke-width="2" d="M582.88,-71.7C593.83,-62.88 607.32,-52.03 619.19,-42.47"/>
<polygon fill="grey" stroke="grey" stroke-width="2" points="621.51,-45.1 627.11,-36.1 617.13,-39.65 621.51,-45.1"/>
</g>
<!-- 4 -->
<g id="node5" class="node">
<title>4</title>
<path fill="none" stroke="#56c1d8" stroke-width="2" d="M688.37,-188C688.37,-188 608.37,-188 608.37,-188 602.37,-188 596.37,-182 596.37,-176 596.37,-176 596.37,-164 596.37,-164 596.37,-158 602.37,-152 608.37,-152 608.37,-152 688.37,-152 688.37,-152 694.37,-152 700.37,-158 700.37,-164 700.37,-164 700.37,-176 700.37,-176 700.37,-182 694.37,-188 688.37,-188"/>
<text text-anchor="middle" x="648.37" y="-167.5" font-family="sans" font-size="10.00">find_trans_not_cis</text>
</g>
<!-- 4&#45;&gt;3 -->
<g id="edge8" class="edge">
<title>4&#45;&gt;3</title>
<path fill="none" stroke="grey" stroke-width="2" d="M629.06,-151.69C617.01,-140.88 601.32,-126.82 588.09,-114.95"/>
<polygon fill="grey" stroke="grey" stroke-width="2" points="590.41,-112.33 580.62,-108.26 585.73,-117.54 590.41,-112.33"/>
</g>
<!-- 9 -->
<g id="node10" class="node">
<title>9</title>
<path fill="none" stroke="#88d856" stroke-width="2" d="M801.37,-108C801.37,-108 669.37,-108 669.37,-108 663.37,-108 657.37,-102 657.37,-96 657.37,-96 657.37,-84 657.37,-84 657.37,-78 663.37,-72 669.37,-72 669.37,-72 801.37,-72 801.37,-72 807.37,-72 813.37,-78 813.37,-84 813.37,-84 813.37,-96 813.37,-96 813.37,-102 807.37,-108 801.37,-108"/>
<text text-anchor="middle" x="735.37" y="-93" font-family="sans" font-size="10.00">calc_dhs_enrichment</text>
<text text-anchor="middle" x="735.37" y="-82" font-family="sans" font-size="10.00">snpgroup: trans_not_cis_eqtl</text>
</g>
<!-- 4&#45;&gt;9 -->
<g id="edge14" class="edge">
<title>4&#45;&gt;9</title>
<path fill="none" stroke="grey" stroke-width="2" d="M667.68,-151.69C679.73,-140.88 695.41,-126.82 708.65,-114.95"/>
<polygon fill="grey" stroke="grey" stroke-width="2" points="711.01,-117.54 716.12,-108.26 706.33,-112.33 711.01,-117.54"/>
</g>
<!-- 5 -->
<g id="node6" class="node">
<title>5</title>
<path fill="none" stroke="#d85656" stroke-width="2" d="M914.87,-273C914.87,-273 381.87,-273 381.87,-273 375.87,-273 369.87,-267 369.87,-261 369.87,-261 369.87,-244 369.87,-244 369.87,-238 375.87,-232 381.87,-232 381.87,-232 914.87,-232 914.87,-232 920.87,-232 926.87,-238 926.87,-244 926.87,-244 926.87,-261 926.87,-261 926.87,-267 920.87,-273 914.87,-273"/>
<text text-anchor="middle" x="648.37" y="-261" font-family="sans" font-size="10.00">find_trans_cis</text>
<text text-anchor="middle" x="648.37" y="-250" font-family="sans" font-size="10.00">results_dir: /cbscratch/franco/trans&#45;eqtl/dev&#45;pipeline/gtex_v8_SHAPEIT2_032021_rev_freeze/raw/summary_dev</text>
<text text-anchor="middle" x="648.37" y="-239" font-family="sans" font-size="10.00">tshort: aa</text>
</g>
<!-- 5&#45;&gt;4 -->
<g id="edge10" class="edge">
<title>5&#45;&gt;4</title>
<path fill="none" stroke="grey" stroke-width="2" d="M648.37,-231.6C648.37,-221.61 648.37,-209.36 648.37,-198.49"/>
<polygon fill="grey" stroke="grey" stroke-width="2" points="651.87,-198.22 648.37,-188.22 644.87,-198.22 651.87,-198.22"/>
</g>
<!-- 5&#45;&gt;6 -->
<g id="edge11" class="edge">
<title>5&#45;&gt;6</title>
<path fill="none" stroke="grey" stroke-width="2" d="M369.82,-244.4C210.17,-237.36 36.52,-223.44 11.37,-196 -4.25,-178.96 -3.15,-161.98 11.37,-144 32.31,-118.07 115.68,-104.22 179.62,-97.26"/>
<polygon fill="grey" stroke="grey" stroke-width="2" points="180.13,-100.73 189.71,-96.21 179.4,-93.77 180.13,-100.73"/>
</g>
<!-- 10 -->
<g id="node11" class="node">
<title>10</title>
<path fill="none" stroke="#88d856" stroke-width="2" d="M1094.87,-108C1094.87,-108 983.87,-108 983.87,-108 977.87,-108 971.87,-102 971.87,-96 971.87,-96 971.87,-84 971.87,-84 971.87,-78 977.87,-72 983.87,-72 983.87,-72 1094.87,-72 1094.87,-72 1100.87,-72 1106.87,-78 1106.87,-84 1106.87,-84 1106.87,-96 1106.87,-96 1106.87,-102 1100.87,-108 1094.87,-108"/>
<text text-anchor="middle" x="1039.37" y="-93" font-family="sans" font-size="10.00">calc_dhs_enrichment</text>
<text text-anchor="middle" x="1039.37" y="-82" font-family="sans" font-size="10.00">snpgroup: trans_cis_eqtl</text>
</g>
<!-- 5&#45;&gt;10 -->
<g id="edge16" class="edge">
<title>5&#45;&gt;10</title>
<path fill="none" stroke="grey" stroke-width="2" d="M926.92,-244.4C1086.57,-237.36 1260.22,-223.44 1285.37,-196 1300.99,-178.96 1299.89,-161.98 1285.37,-144 1264.43,-118.07 1181.06,-104.22 1117.11,-97.26"/>
<polygon fill="grey" stroke="grey" stroke-width="2" points="1117.34,-93.77 1107.03,-96.21 1116.61,-100.73 1117.34,-93.77"/>
</g>
<!-- 6&#45;&gt;0 -->
<g id="edge3" class="edge">
<title>6&#45;&gt;0</title>
<path fill="none" stroke="grey" stroke-width="2" d="M324.94,-73.88C328.12,-73.23 331.28,-72.6 334.37,-72 433.94,-52.62 552.08,-33.79 611.03,-24.68"/>
<polygon fill="grey" stroke="grey" stroke-width="2" points="611.63,-28.13 620.99,-23.15 610.57,-21.21 611.63,-28.13"/>
</g>
<!-- 7 -->
<g id="node8" class="node">
<title>7</title>
<path fill="none" stroke="#88d856" stroke-width="2" d="M941.37,-108C941.37,-108 843.37,-108 843.37,-108 837.37,-108 831.37,-102 831.37,-96 831.37,-96 831.37,-84 831.37,-84 831.37,-78 837.37,-72 843.37,-72 843.37,-72 941.37,-72 941.37,-72 947.37,-72 953.37,-78 953.37,-84 953.37,-84 953.37,-96 953.37,-96 953.37,-102 947.37,-108 941.37,-108"/>
<text text-anchor="middle" x="892.37" y="-93" font-family="sans" font-size="10.00">calc_dhs_enrichment</text>
<text text-anchor="middle" x="892.37" y="-82" font-family="sans" font-size="10.00">snpgroup: trans_eqtls</text>
</g>
<!-- 7&#45;&gt;0 -->
<g id="edge4" class="edge">
<title>7&#45;&gt;0</title>
<path fill="none" stroke="grey" stroke-width="2" d="M832.99,-71.97C786.93,-58.75 724.51,-40.84 685.35,-29.61"/>
<polygon fill="grey" stroke="grey" stroke-width="2" points="686.25,-26.23 675.68,-26.83 684.32,-32.96 686.25,-26.23"/>
</g>
<!-- 8 -->
<g id="node9" class="node">
<title>8</title>
<path fill="none" stroke="#56d88a" stroke-width="2" d="M1263.87,-196C1263.87,-196 730.87,-196 730.87,-196 724.87,-196 718.87,-190 718.87,-184 718.87,-184 718.87,-156 718.87,-156 718.87,-150 724.87,-144 730.87,-144 730.87,-144 1263.87,-144 1263.87,-144 1269.87,-144 1275.87,-150 1275.87,-156 1275.87,-156 1275.87,-184 1275.87,-184 1275.87,-190 1269.87,-196 1263.87,-196"/>
<text text-anchor="middle" x="997.37" y="-184" font-family="sans" font-size="10.00">calc_dhs_background</text>
<text text-anchor="middle" x="997.37" y="-173" font-family="sans" font-size="10.00">dhstype: dhsmulti</text>
<text text-anchor="middle" x="997.37" y="-162" font-family="sans" font-size="10.00">results_dir: /cbscratch/franco/trans&#45;eqtl/dev&#45;pipeline/gtex_v8_SHAPEIT2_032021_rev_freeze/raw/summary_dev</text>
<text text-anchor="middle" x="997.37" y="-151" font-family="sans" font-size="10.00">tshort: aa</text>
</g>
<!-- 8&#45;&gt;7 -->
<g id="edge13" class="edge">
<title>8&#45;&gt;7</title>
<path fill="none" stroke="grey" stroke-width="2" d="M963.57,-143.89C950.81,-134.41 936.35,-123.67 923.81,-114.36"/>
<polygon fill="grey" stroke="grey" stroke-width="2" points="925.6,-111.32 915.48,-108.17 921.42,-116.94 925.6,-111.32"/>
</g>
<!-- 8&#45;&gt;9 -->
<g id="edge15" class="edge">
<title>8&#45;&gt;9</title>
<path fill="none" stroke="grey" stroke-width="2" d="M913.39,-144C877.56,-133.33 836.32,-121.06 802.57,-111"/>
<polygon fill="grey" stroke="grey" stroke-width="2" points="803.38,-107.6 792.8,-108.1 801.38,-114.31 803.38,-107.6"/>
</g>
<!-- 8&#45;&gt;10 -->
<g id="edge17" class="edge">
<title>8&#45;&gt;10</title>
<path fill="none" stroke="grey" stroke-width="2" d="M1010.89,-143.89C1015.47,-135.39 1020.59,-125.87 1025.22,-117.28"/>
<polygon fill="grey" stroke="grey" stroke-width="2" points="1028.34,-118.87 1029.99,-108.41 1022.17,-115.56 1028.34,-118.87"/>
</g>
<!-- 9&#45;&gt;0 -->
<g id="edge5" class="edge">
<title>9&#45;&gt;0</title>
<path fill="none" stroke="grey" stroke-width="2" d="M713.86,-71.7C702.91,-62.88 689.42,-52.03 677.54,-42.47"/>
<polygon fill="grey" stroke="grey" stroke-width="2" points="679.61,-39.65 669.63,-36.1 675.23,-45.1 679.61,-39.65"/>
</g>
<!-- 10&#45;&gt;0 -->
<g id="edge6" class="edge">
<title>10&#45;&gt;0</title>
<path fill="none" stroke="grey" stroke-width="2" d="M971.8,-73.88C968.62,-73.23 965.46,-72.6 962.37,-72 862.8,-52.62 744.66,-33.79 685.71,-24.68"/>
<polygon fill="grey" stroke="grey" stroke-width="2" points="686.17,-21.21 675.75,-23.15 685.1,-28.13 686.17,-21.21"/>
</g>
</g>
</svg>
